# Blender 4.3.2
# www.blender.org
mtllib untitled.mtl
o Cube
v 1.000000 1.000000 -1.000000 	
v 1.000000 -1.000000 -1.000000 	
v 1.000000 1.000000 1.000000 	
v 1.000000 -1.000000 1.000000 	
v -1.000000 1.000000 -1.000000 	
v -1.000000 -1.000000 -1.000000 	
v -1.000000 1.000000 1.000000 	
v -1.000000 -1.000000 1.000000 	

vt 0.0 1.0
vt 0.0 0.0
vt 1.0 1.0
vt 1.0 0.0
vt 0.5 1.0
vt 0.5 0.0
vt 1.0 0.5
vt 0.0 0.5

vn -0.0000 1.0000 -0.0000
vn -0.0000 -0.0000 1.0000
vn -1.0000 -0.0000 -0.0000
vn -0.0000 -1.0000 -0.0000
vn 1.0000 -0.0000 -0.0000
vn -0.0000 -0.0000 -1.0000
s 0

usemtl Material
f 5/1/1 3/3/1 1/5/1
f 3/3/2 8/4/2 4/2/2
f 7/1/3 6/2/3 8/4/3
f 2/4/4 8/4/4 6/2/4
f 1/5/5 4/2/5 2/4/5
f 5/1/6 2/4/6 6/2/6
f 5/1/1 7/1/1 3/3/1
f 3/3/2 7/1/2 8/4/2
f 7/1/3 5/1/3 6/2/3
f 2/4/4 4/2/4 8/4/4
f 1/5/5 3/3/5 4/2/5
f 5/1/6 1/5/6 2/4/6
